<svg width="88" height="32" viewBox="0 0 88 32" fill="none" xmlns="http://www.w3.org/2000/svg">
<g id="Button container">
<g id="Button">
<path id="Vector" fill-rule="evenodd" clip-rule="evenodd" d="M70.6826 5.01494C70.9458 5.08146 71.1103 5.3523 71.0445 5.62313L70.2031 9.02994L72.2574 7.78505C72.436 7.67577 72.6711 7.73754 72.7792 7.91809C72.8873 8.09865 72.8262 8.33622 72.6476 8.44551L70.5932 9.69039L73.9639 10.5409C74.2271 10.6074 74.3916 10.8783 74.3258 11.1491C74.26 11.4152 73.9921 11.5815 73.7241 11.515L70.3535 10.6644L71.5851 12.7408C71.6933 12.9214 71.6322 13.159 71.4535 13.2683C71.2749 13.3775 71.0398 13.3158 70.9317 13.1352L69.7 11.0588L68.8586 14.4656C68.7928 14.7317 68.5248 14.898 68.2568 14.8315C67.9936 14.765 67.8291 14.4941 67.8949 14.2233L68.7363 10.8165L66.6867 12.0614C66.5081 12.1707 66.273 12.1089 66.1649 11.9283C66.0568 11.7478 66.1179 11.5102 66.2965 11.4009L68.3509 10.156L64.9803 9.30552C64.717 9.239 64.5525 8.96817 64.6183 8.69734C64.6841 8.43125 64.952 8.26495 65.22 8.33147L68.5906 9.18199L67.359 7.10559C67.2508 6.92504 67.3119 6.68746 67.4906 6.57818C67.6692 6.46889 67.9043 6.53066 68.0124 6.71122L69.244 8.78761L70.0855 5.38081C70.1513 5.10997 70.4193 4.94842 70.6826 5.01494Z" fill="white"/>
<path id="Vector_2" d="M62.0749 7.92286C45.7155 3.90311 29.718 4.64435 14.0684 10.1371" stroke="white" stroke-width="0.668241" stroke-miterlimit="22.9256" stroke-linecap="round"/>
<path id="Vector_3" fill-rule="evenodd" clip-rule="evenodd" d="M1 20.396H2.64065C3.69837 20.396 4.48344 20.5148 4.99585 20.7524C5.50825 20.9899 5.93134 21.3748 6.26511 21.9117C6.59888 22.4486 6.76342 23.0711 6.76342 23.7885C6.76342 24.297 6.6694 24.7626 6.48606 25.1902C6.30272 25.6179 6.04417 25.9695 5.7151 26.2546C5.38603 26.5349 5.03345 26.7297 4.65267 26.839C4.27189 26.9483 3.60905 27.0005 2.66885 27.0005H1V20.396ZM2.37739 21.6124V25.7794H3.02143C3.65606 25.7794 4.11206 25.7129 4.39882 25.5799C4.68558 25.4468 4.91593 25.2235 5.09927 24.9146C5.27791 24.6058 5.37193 24.2209 5.37193 23.7648C5.37193 23.0663 5.15568 22.5199 4.72319 22.135C4.33301 21.7882 3.71247 21.6124 2.85219 21.6124H2.37739ZM13.3166 20.396H14.788C15.5919 20.396 16.1654 20.4625 16.5086 20.5908C16.8518 20.7191 17.1244 20.9377 17.3313 21.2418C17.5381 21.5459 17.6415 21.9022 17.6415 22.3156C17.6415 22.748 17.5287 23.1138 17.2983 23.4037C17.068 23.6983 16.7248 23.9168 16.2641 24.0641L17.98 27.0005H16.4663L14.8303 24.2067H14.6893V27.0005H13.3166V20.396ZM14.694 22.9808H15.1312C15.5778 22.9808 15.8833 22.9285 16.0526 22.824C16.2218 22.7195 16.3017 22.5437 16.3017 22.2966C16.3017 22.154 16.2594 22.0258 16.1748 21.9212C16.0902 21.8119 15.9821 21.7359 15.841 21.6931C15.7047 21.6456 15.4462 21.6219 15.0748 21.6219H14.6893V22.9808H14.694ZM24.2558 20.396H28.2282V21.6266H25.6332V22.8145H28.2282V24.0261H25.6332V25.7652H28.2282V26.9958H24.2558V20.396ZM36.878 20.396H38.2742L41.0713 27.0005H39.6328L39.064 25.6416H36.0835L35.5006 27.0005H34.0621L36.878 20.396ZM37.5784 22.154L36.5912 24.4252H38.5562L37.5784 22.154ZM47.9911 20.396H49.3356L51.028 25.0002L52.7297 20.396H54.0695L55.2871 27.0005H53.952L53.1763 22.8288L51.6344 27.0005H50.4122L48.8796 22.8288L48.0899 27.0005H46.7407L47.9911 20.396ZM61.5582 20.396H65.5306V21.6266H62.9356V22.8145H65.5306V24.0261H62.9356V25.7652H65.5306V26.9958H61.5582V20.396ZM72.0508 20.396H73.5222C74.3261 20.396 74.8996 20.4625 75.2428 20.5908C75.586 20.7191 75.8586 20.9377 76.0655 21.2418C76.2723 21.5459 76.3757 21.9022 76.3757 22.3156C76.3757 22.748 76.2629 23.1138 76.0326 23.4037C75.8022 23.6983 75.4591 23.9168 74.9984 24.0641L76.7142 27.0005H75.2005L73.5646 24.2067H73.4235V27.0005H72.0461V20.396H72.0508ZM73.4282 22.9808H73.8654C74.312 22.9808 74.6176 22.9285 74.7868 22.824C74.9561 22.7195 75.036 22.5437 75.036 22.2966C75.036 22.154 74.9937 22.0258 74.909 21.9212C74.8244 21.8119 74.7163 21.7359 74.5753 21.6931C74.4389 21.6456 74.1804 21.6219 73.809 21.6219H73.4235V22.9808H73.4282ZM82.5952 20.396H87L84.4051 25.7842H86.8308V26.9958H82.3836L84.9645 21.6361H82.5952V20.396Z" fill="white"/>
</g>
</g>
</svg>
